<?xml version="1.0" standalone="no"?>
<!DOCTYPE svg PUBLIC "-//W3C//DTD SVG 20010904//EN"
 "http://www.w3.org/TR/2001/REC-SVG-20010904/DTD/svg10.dtd">
<svg version="1.0" xmlns="http://www.w3.org/2000/svg"
 width="376.000000pt" height="376.000000pt" viewBox="0 0 376.000000 376.000000"
 preserveAspectRatio="xMidYMid meet">
<metadata>
Created by potrace 1.11, written by Peter Selinger 2001-2013
</metadata>
<g transform="translate(0.000000,376.000000) scale(0.100000,-0.100000)"
fill="#000000" stroke="none">
<path d="M1808 3749 c-49 -14 -126 -83 -149 -134 -22 -48 -25 -142 -5 -189 35
-83 138 -156 223 -156 128 0 243 116 243 246 0 90 -52 174 -132 215 -48 24
-128 32 -180 18z"/>
<path d="M507 2929 c-100 -24 -206 -112 -250 -207 l-22 -47 0 -965 0 -965 22
-48 c33 -70 113 -149 186 -183 l62 -29 1375 0 1375 0 57 27 c76 35 151 107
185 177 l28 56 0 965 0 965 -28 56 c-34 70 -109 142 -185 177 l-57 27 -1355 2
c-767 0 -1371 -3 -1393 -8z m-19 -175 c15 -10 22 -25 22 -48 0 -40 -15 -56
-54 -56 -59 0 -87 59 -46 100 24 24 48 25 78 4z m2856 -17 c19 -26 19 -30 5
-55 -18 -33 -77 -43 -99 -17 -20 24 -15 67 10 87 30 25 58 20 84 -15z m-274
-86 c73 -28 125 -74 157 -139 l28 -57 0 -750 0 -750 -30 -54 c-36 -65 -83
-105 -153 -131 -53 -20 -75 -20 -1210 -18 l-1157 3 -41 22 c-63 34 -97 66
-129 125 l-30 53 -3 710 c-2 391 0 733 3 761 12 100 101 205 199 233 18 5 521
10 1173 10 1098 1 1145 0 1193 -18z m-2576 -1907 c35 -34 8 -104 -41 -104 -27
0 -63 33 -63 58 0 52 68 82 104 46z m2851 -8 c33 -49 -11 -107 -69 -92 -37 9
-51 70 -24 104 18 22 76 15 93 -12z"/>
<path d="M1077 2334 c-212 -51 -388 -221 -453 -440 -25 -81 -25 -247 0 -329
64 -216 239 -386 451 -440 76 -19 224 -19 300 0 210 53 388 225 449 434 68
233 -19 505 -211 655 -70 55 -165 102 -246 121 -77 18 -213 18 -290 -1z m306
-154 c133 -50 240 -153 288 -278 33 -85 38 -220 11 -309 -51 -167 -179 -289
-344 -328 -80 -19 -146 -19 -227 0 -86 21 -154 59 -221 125 -95 95 -140 203
-140 341 0 139 64 281 165 363 52 43 154 93 216 106 65 14 188 4 252 -20z"/>
<path d="M1105 1952 c-158 -87 -180 -299 -43 -416 40 -35 117 -66 163 -66 46
0 123 31 163 66 137 117 115 329 -43 416 -41 23 -63 28 -120 28 -57 0 -79 -5
-120 -28z"/>
<path d="M2410 2335 c-96 -26 -213 -90 -277 -152 -335 -323 -227 -866 205
-1036 91 -36 240 -48 344 -28 230 44 434 248 484 482 64 302 -113 612 -408
716 -92 33 -261 41 -348 18z m312 -158 c333 -121 421 -564 159 -800 -193 -173
-479 -168 -660 13 -94 95 -141 207 -141 340 0 126 42 229 131 325 133 142 328
188 511 122z"/>
<path d="M2445 1961 c-192 -87 -199 -355 -14 -456 133 -72 295 -13 355 130 21
50 21 140 0 190 -22 52 -80 112 -131 136 -53 25 -156 25 -210 0z"/>
<path d="M1585 1092 c-11 -3 -35 -15 -54 -28 -102 -69 -94 -192 18 -251 43
-23 50 -23 333 -23 267 0 292 1 327 20 41 21 86 67 96 101 19 58 -28 138 -100
170 -37 17 -70 18 -321 16 -153 -1 -288 -3 -299 -5z"/>
</g>
</svg>
